<?xml version="1.0" encoding="UTF-8" standalone="no"?>
<!-- Created with Inkscape (http://www.inkscape.org/) -->

<svg
   width="367.81503mm"
   height="179.78101mm"
   viewBox="0 0 367.81503 179.78101"
   version="1.1"
   id="svg11571"
   inkscape:version="1.1.1 (c3084ef, 2021-09-22)"
   sodipodi:docname="learnmore.svg"
   xmlns:inkscape="http://www.inkscape.org/namespaces/inkscape"
   xmlns:sodipodi="http://sodipodi.sourceforge.net/DTD/sodipodi-0.dtd"
   xmlns="http://www.w3.org/2000/svg"
   xmlns:svg="http://www.w3.org/2000/svg">
  <sodipodi:namedview
     id="namedview11573"
     pagecolor="#ffffff"
     bordercolor="#666666"
     borderopacity="1.0"
     inkscape:pageshadow="2"
     inkscape:pageopacity="0.0"
     inkscape:pagecheckerboard="0"
     inkscape:document-units="mm"
     showgrid="false"
     inkscape:zoom="0.42720245"
     inkscape:cx="998.35569"
     inkscape:cy="235.25146"
     inkscape:window-width="2560"
     inkscape:window-height="1387"
     inkscape:window-x="0"
     inkscape:window-y="25"
     inkscape:window-maximized="1"
     inkscape:current-layer="layer1" />
  <defs
     id="defs11568">
    <linearGradient
       id="3cf802be-0480-4c68-848a-073112220499-149"
       x1="635.21997"
       y1="545.34003"
       x2="635.21997"
       y2="43.419998"
       gradientUnits="userSpaceOnUse"
       gradientTransform="matrix(0.26458333,0,0,0.26458333,757.19246,-49.133932)">
      <stop
         offset="0"
         stop-color="gray"
         stop-opacity="0.25"
         id="stop12379" />
      <stop
         offset="0.54"
         stop-color="gray"
         stop-opacity="0.12"
         id="stop12381" />
      <stop
         offset="1"
         stop-color="gray"
         stop-opacity="0.1"
         id="stop12383" />
    </linearGradient>
  </defs>
  <g
     inkscape:label="Layer 1"
     inkscape:groupmode="layer"
     id="layer1"
     transform="translate(-287.07019,75.982956)">
    <g
       id="g26331">
      <g
         id="g25832"
         transform="translate(77.410657,-283.74767)">
        <circle
           cx="451.80692"
           cy="286.63995"
           r="11.394897"
           fill="#2f2e41"
           id="circle11926"
           style="stroke-width:0.264583" />
        <rect
           x="446.61429"
           y="295.58276"
           width="3.4617395"
           height="6.2022858"
           fill="#2f2e41"
           id="rect11928"
           style="stroke-width:0.264583" />
        <rect
           x="453.53778"
           y="295.58276"
           width="3.4617367"
           height="6.2022858"
           fill="#2f2e41"
           id="rect11930"
           style="stroke-width:0.264583" />
        <ellipse
           cx="449.49908"
           cy="301.85718"
           rx="2.884789"
           ry="1.0817965"
           fill="#2f2e41"
           id="ellipse11932"
           style="stroke-width:0.264583" />
        <ellipse
           cx="456.42258"
           cy="301.71295"
           rx="2.884789"
           ry="1.0817965"
           fill="#2f2e41"
           id="ellipse11934"
           style="stroke-width:0.264583" />
        <ellipse
           cx="128.79089"
           cy="525.3877"
           rx="6.3215418"
           ry="1.9845204"
           transform="rotate(-45.0221)"
           fill="#2f2e41"
           id="ellipse11936"
           style="stroke-width:0.264583" />
        <ellipse
           cx="11.844072"
           cy="527.45392"
           rx="6.3215418"
           ry="1.9845204"
           transform="rotate(-55.225209)"
           fill="#2f2e41"
           id="ellipse11938"
           style="stroke-width:0.264583" />
        <circle
           cx="451.32748"
           cy="285.02515"
           r="3.8944576"
           fill="#ffffff"
           id="circle11940"
           style="stroke-width:0.264583" />
        <circle
           cx="452.65039"
           cy="283.70221"
           r="1.2981595"
           fill="#3f3d56"
           id="circle11942"
           style="stroke-width:0.264583" />
        <path
           d="m 455.99665,292.22775 c 0.38204,1.37616 -1.00955,2.69485 -3.10821,2.94536 -2.09866,0.25052 -4.10968,-0.66199 -4.49172,-2.03815 v 0 l -0.001,-0.005 c -0.38,-1.3764 1.24291,-1.86346 3.34195,-2.11263 2.09904,-0.24917 3.87936,-0.16607 4.25934,1.21031 z"
           fill="#ffffff"
           id="path11944"
           style="stroke-width:0.264583" />
        <path
           d="m 447.81989,279.93356 a 20.130952,20.130952 0 0 1 -5.87955,1.38107 0.6690598,0.6690598 0 0 1 -0.66678,-0.41558 l -1.73034,-4.30336 a 0.6622362,0.6622362 0 0 1 0.36694,-0.86048 l 10.80119,-4.34309 a 0.6622362,0.6622362 0 0 1 0.86047,0.36693 l 1.72935,4.30085 a 0.6630617,0.6630617 0 0 1 -0.19983,0.76459 20.951047,20.951047 0 0 1 -5.28145,3.10907 z"
           fill="#ffa200"
           id="path11946"
           style="stroke-width:0.264583" />
        <path
           d="m 451.44907,271.80841 0.28921,0.71926 -5.02073,4.39999 a 0.53327828,0.53327828 0 0 1 -0.33832,0.13033 l -6.44777,0.14869 -0.26552,-0.66034 a 0.53070918,0.53070918 0 0 1 0.29355,-0.68838 l 10.8012,-4.3431 a 0.53071183,0.53071183 0 0 1 0.68838,0.29355 z"
           opacity="0.2"
           id="path11948"
           style="stroke-width:0.264583" />
        <path
           d="m 446.21953,276.16163 a 0.66210126,0.66210126 0 0 1 -0.23136,0.0478 l -9.6351,0.22269 a 0.66150595,0.66150595 0 0 1 -0.44744,-1.16211 l 6.79294,-5.8616 a 0.66813641,0.66813641 0 0 1 0.392,-0.15957 l 9.96897,-0.60438 a 0.66145832,0.66145832 0 0 1 0.4759,1.15777 l -7.12681,6.24344 a 0.66066458,0.66066458 0 0 1 -0.1891,0.11599 z"
           fill="#ffa200"
           id="path11950"
           style="stroke-width:0.264583" />
        <polygon
           points="350.009,199.687 378.307,188.308 378.68,189.236 351.309,200.242 356.346,212.767 355.418,213.14 "
           fill="#3f3d56"
           id="polygon11952"
           transform="matrix(0.26458333,0,0,0.26458333,344.23263,222.7104)" />
        <circle
           cx="438.49176"
           cy="279.29987"
           r="0.52916664"
           fill="#3f3d56"
           id="circle11954"
           style="stroke-width:0.264583" />
      </g>
      <g
         id="g25850"
         transform="translate(44.522804,-323.31401)">
        <path
           d="m 495.18732,259.71741 a 20.130905,20.130905 0 0 1 -4.58614,-3.92986 0.66906245,0.66906245 0 0 1 -0.0583,-0.78352 l 2.4515,-3.93741 a 0.6622362,0.6622362 0 0 1 0.91112,-0.21191 l 9.88269,6.15313 a 0.66225207,0.66225207 0 0 1 0.2119,0.91113 l -2.45006,3.93511 a 0.66306435,0.66306435 0 0 1 -0.73508,0.29017 20.950975,20.950975 0 0 1 -5.62765,-2.42684 z"
           fill="#ffa200"
           id="path11956"
           style="stroke-width:0.264583" />
        <path
           d="m 503.8878,257.84905 -0.40974,0.65809 -6.5156,-1.45422 a 0.53329416,0.53329416 0 0 1 -0.30493,-0.1961 l -3.92702,-5.11609 0.37618,-0.60419 a 0.53070918,0.53070918 0 0 1 0.7289,-0.16952 l 9.88268,6.15312 a 0.53070918,0.53070918 0 0 1 0.16953,0.72891 z"
           opacity="0.2"
           id="path11958"
           style="stroke-width:0.264583" />
        <path
           d="m 497.28667,256.19869 a 0.66215418,0.66215418 0 0 1 -0.17515,-0.15852 l -5.86866,-7.64484 a 0.66150595,0.66150595 0 0 1 0.67374,-1.04728 l 8.7416,2.02154 a 0.66813905,0.66813905 0 0 1 0.36024,0.22216 l 6.37385,7.68895 a 0.66147155,0.66147155 0 0 1 -0.65342,1.06769 l -9.24693,-2.06558 a 0.6607466,0.6607466 0 0 1 -0.20527,-0.0841 z"
           fill="#ffa200"
           id="path11960"
           style="stroke-width:0.264583" />
        <polygon
           points="559.742,97.955 552.607,109.416 551.758,108.887 559.422,96.578 585.314,112.699 584.785,113.547 "
           fill="#3f3d56"
           id="polygon11962"
           transform="matrix(0.26458333,0,0,0.26458333,344.23263,222.7104)" />
        <circle
           cx="490.1911"
           cy="251.81464"
           r="0.52916664"
           fill="#3f3d56"
           id="circle11964"
           style="stroke-width:0.264583" />
        <circle
           cx="522.75433"
           cy="273.67535"
           r="11.394897"
           fill="#2f2e41"
           id="circle11966"
           style="stroke-width:0.264583" />
        <rect
           x="303.53259"
           y="515.28162"
           width="3.4617395"
           height="6.2022853"
           transform="rotate(-31.431129)"
           fill="#2f2e41"
           id="rect11968"
           style="stroke-width:0.264583" />
        <rect
           x="296.6091"
           y="515.28156"
           width="3.4617367"
           height="6.2022853"
           transform="rotate(-31.431129)"
           fill="#2f2e41"
           id="rect11970"
           style="stroke-width:0.264583" />
        <ellipse
           cx="304.10953"
           cy="521.55597"
           rx="2.884789"
           ry="1.0817965"
           transform="rotate(-31.431129)"
           fill="#2f2e41"
           id="ellipse11972"
           style="stroke-width:0.264583" />
        <ellipse
           cx="297.18604"
           cy="521.41174"
           rx="2.884789"
           ry="1.0817965"
           transform="rotate(-31.431129)"
           fill="#2f2e41"
           id="ellipse11974"
           style="stroke-width:0.264583" />
        <ellipse
           cx="173.16068"
           cy="550.89124"
           rx="1.9845204"
           ry="6.3215418"
           transform="rotate(-44.9779)"
           fill="#2f2e41"
           id="ellipse11976"
           style="stroke-width:0.264583" />
        <ellipse
           cx="280.44531"
           cy="533.34998"
           rx="1.9845204"
           ry="6.3215418"
           transform="rotate(-34.774791)"
           fill="#2f2e41"
           id="ellipse11978"
           style="stroke-width:0.264583" />
        <circle
           cx="519.26501"
           cy="270.47305"
           r="3.8944576"
           fill="#ffffff"
           id="circle11980"
           style="stroke-width:0.264583" />
        <circle
           cx="517.94208"
           cy="269.15015"
           r="1.2981595"
           fill="#3f3d56"
           id="circle11982"
           style="stroke-width:0.264583" />
        <path
           d="m 514.24999,276.96938 c -0.73848,1.20994 0.24546,2.84682 2.19771,3.65605 1.95224,0.80924 4.13352,0.48442 4.872,-0.72552 v 0 l 0.003,-0.004 c 0.73658,-1.21074 -0.69407,-2.11655 -2.64704,-2.9246 -1.95296,-0.80804 -3.68874,-1.21234 -4.42529,-0.002 z"
           fill="#ffffff"
           id="path11984"
           style="stroke-width:0.264583" />
        <path
           d="m 518.93087,259.36766 c 1.01748,-4.0976 5.50878,-6.50895 10.03161,-5.3859 4.52284,1.12305 7.36449,5.35524 6.34701,9.45284 -1.01748,4.0976 -4.39312,4.11083 -8.91596,2.98777 -4.52283,-1.12306 -8.48013,-2.9571 -7.46266,-7.05471 z"
           fill="#e6e6e6"
           id="path11986"
           style="stroke-width:0.264583" />
      </g>
      <g
         id="g12286"
         transform="matrix(0.26458333,0,0,0.26458333,442.68224,-53.682978)">
        <rect
           x="464.90552"
           y="218.80786"
           width="337.12146"
           height="9.8888998"
           fill="#e6e6e6"
           id="rect12062" />
        <rect
           x="492.77423"
           y="136.10072"
           width="85.404099"
           height="85.404099"
           fill="#e6e6e6"
           id="rect12064" />
        <rect
           x="509.85504"
           y="153.18155"
           width="51.242458"
           height="51.242458"
           fill="#cccccc"
           id="rect12066" />
        <rect
           x="684.25922"
           y="136.10072"
           width="21.575769"
           height="85.404099"
           fill="#e6e6e6"
           id="rect12068" />
        <rect
           x="684.25922"
           y="149.58559"
           width="21.575769"
           height="9.8888998"
           fill="#cccccc"
           id="rect12070" />
        <rect
           x="684.25922"
           y="192.73714"
           width="21.575769"
           height="9.8888998"
           fill="#cccccc"
           id="rect12072" />
        <rect
           x="650.99652"
           y="136.10072"
           width="21.575769"
           height="85.404099"
           fill="#e6e6e6"
           id="rect12074" />
        <rect
           x="650.99652"
           y="149.58559"
           width="21.575769"
           height="9.8888998"
           fill="#cccccc"
           id="rect12076" />
        <rect
           x="650.99652"
           y="192.73714"
           width="21.575769"
           height="9.8888998"
           fill="#cccccc"
           id="rect12078" />
        <rect
           x="921.90228"
           y="290.64258"
           width="21.575769"
           height="85.404099"
           transform="rotate(-26.3396,502.96798,681.27337)"
           fill="#e6e6e6"
           id="rect12080" />
        <rect
           x="911.13269"
           y="306.64743"
           width="21.575769"
           height="9.8888998"
           transform="rotate(-26.3396,492.19839,659.5206)"
           fill="#cccccc"
           id="rect12082" />
        <rect
           x="930.27869"
           y="345.31897"
           width="21.575769"
           height="9.8888998"
           transform="rotate(-26.3396,511.34433,698.19217)"
           fill="#cccccc"
           id="rect12084" />
        <polygon
           points="513.823,189.201 524.688,170.382 535.554,189.201 546.419,208.02 524.688,208.02 502.958,208.02 "
           fill="#e6e6e6"
           id="polygon12086" />
        <polygon
           points="532.702,192.797 543.567,173.978 554.432,192.797 565.298,211.616 543.567,211.616 521.837,211.616 "
           fill="#e6e6e6"
           id="polygon12088" />
        <circle
           cx="551.20862"
           cy="162.17145"
           r="6.2929301"
           fill="#e6e6e6"
           id="circle12090" />
        <rect
           x="663.89203"
           y="237.60213"
           width="337.12146"
           height="9.8888998"
           transform="rotate(180,732.95949,165.27565)"
           fill="#e6e6e6"
           id="rect12092" />
        <rect
           x="887.74066"
           y="154.895"
           width="85.404099"
           height="85.404099"
           transform="rotate(180,830.94947,120.32613)"
           fill="#e6e6e6"
           id="rect12094" />
        <rect
           x="904.82147"
           y="171.97581"
           width="51.242458"
           height="51.242458"
           transform="rotate(180,830.94947,120.32613)"
           fill="#cccccc"
           id="rect12096" />
        <rect
           x="760.08405"
           y="154.895"
           width="21.575769"
           height="85.404099"
           transform="rotate(180,671.37864,120.32613)"
           fill="#e6e6e6"
           id="rect12098" />
        <rect
           x="760.08405"
           y="168.37987"
           width="21.575769"
           height="9.8888998"
           transform="rotate(180,671.37864,96.053385)"
           fill="#cccccc"
           id="rect12100" />
        <rect
           x="760.08405"
           y="211.5314"
           width="21.575769"
           height="9.8888998"
           transform="rotate(180,671.37864,139.20493)"
           fill="#cccccc"
           id="rect12102" />
        <rect
           x="793.34668"
           y="154.895"
           width="21.575769"
           height="85.404099"
           transform="rotate(180,704.6413,120.32613)"
           fill="#e6e6e6"
           id="rect12104" />
        <rect
           x="793.34668"
           y="168.37987"
           width="21.575769"
           height="9.8888998"
           transform="rotate(180,704.6413,96.053385)"
           fill="#cccccc"
           id="rect12106" />
        <rect
           x="793.34668"
           y="211.5314"
           width="21.575769"
           height="9.8888998"
           transform="rotate(180,704.6413,139.20493)"
           fill="#cccccc"
           id="rect12108" />
        <rect
           x="721.42743"
           y="154.895"
           width="21.575769"
           height="85.404099"
           transform="rotate(-153.6604,614.64127,143.60676)"
           fill="#e6e6e6"
           id="rect12110" />
        <rect
           x="732.19702"
           y="170.89986"
           width="21.575769"
           height="9.8888998"
           transform="rotate(-153.6604,625.41087,121.85401)"
           fill="#cccccc"
           id="rect12112" />
        <rect
           x="713.05109"
           y="209.5714"
           width="21.575769"
           height="9.8888998"
           transform="rotate(-153.6604,606.26492,160.52556)"
           fill="#cccccc"
           id="rect12114" />
        <polygon
           points="753.109,53.453 742.244,34.634 731.379,53.453 720.514,72.272 742.244,72.272 763.975,72.272 "
           fill="#e6e6e6"
           id="polygon12116" />
        <polygon
           points="734.231,57.049 723.365,38.23 712.5,57.049 701.635,75.868 723.365,75.868 745.096,75.868 "
           fill="#e6e6e6"
           id="polygon12118" />
        <circle
           cx="715.72388"
           cy="26.42388"
           r="6.2929301"
           fill="#e6e6e6"
           id="circle12120" />
        <rect
           x="663.89203"
           y="509.09726"
           width="337.12146"
           height="9.8888998"
           transform="rotate(180,732.95949,436.7708)"
           fill="#e6e6e6"
           id="rect12122" />
        <rect
           x="887.74066"
           y="426.39014"
           width="85.404099"
           height="85.404099"
           transform="rotate(180,830.94947,391.82127)"
           fill="#e6e6e6"
           id="rect12124" />
        <rect
           x="904.82147"
           y="443.47095"
           width="51.242458"
           height="51.242458"
           transform="rotate(180,830.94947,391.82127)"
           fill="#cccccc"
           id="rect12126" />
        <rect
           x="760.08405"
           y="426.39014"
           width="21.575769"
           height="85.404099"
           transform="rotate(180,671.37864,391.82127)"
           fill="#e6e6e6"
           id="rect12128" />
        <rect
           x="760.08405"
           y="439.875"
           width="21.575769"
           height="9.8888998"
           transform="rotate(180,671.37864,367.54853)"
           fill="#cccccc"
           id="rect12130" />
        <rect
           x="760.08405"
           y="483.02655"
           width="21.575769"
           height="9.8888998"
           transform="rotate(180,671.37864,410.70008)"
           fill="#cccccc"
           id="rect12132" />
        <rect
           x="793.34668"
           y="426.39014"
           width="21.575769"
           height="85.404099"
           transform="rotate(180,704.6413,391.82127)"
           fill="#e6e6e6"
           id="rect12134" />
        <rect
           x="793.34668"
           y="439.875"
           width="21.575769"
           height="9.8888998"
           transform="rotate(180,704.6413,367.54853)"
           fill="#cccccc"
           id="rect12136" />
        <rect
           x="793.34668"
           y="483.02655"
           width="21.575769"
           height="9.8888998"
           transform="rotate(180,704.6413,410.70008)"
           fill="#cccccc"
           id="rect12138" />
        <rect
           x="721.42743"
           y="426.39014"
           width="21.575769"
           height="85.404099"
           transform="rotate(-153.6604,614.64127,415.1019)"
           fill="#e6e6e6"
           id="rect12140" />
        <rect
           x="732.19702"
           y="442.39499"
           width="21.575769"
           height="9.8888998"
           transform="rotate(-153.6604,625.41086,393.34915)"
           fill="#cccccc"
           id="rect12142" />
        <rect
           x="713.05109"
           y="481.06656"
           width="21.575769"
           height="9.8888998"
           transform="rotate(-153.6604,606.26492,432.02071)"
           fill="#cccccc"
           id="rect12144" />
        <polygon
           points="753.109,324.948 742.244,306.129 731.379,324.948 720.514,343.768 742.244,343.768 763.975,343.768 "
           fill="#e6e6e6"
           id="polygon12146" />
        <polygon
           points="734.231,328.544 723.365,309.725 712.5,328.544 701.635,347.364 723.365,347.364 745.096,347.364 "
           fill="#e6e6e6"
           id="polygon12148" />
        <circle
           cx="715.72388"
           cy="297.91904"
           r="6.2929301"
           fill="#e6e6e6"
           id="circle12150" />
        <ellipse
           cx="397.12943"
           cy="562.71112"
           rx="397.12943"
           ry="28.205219"
           fill="#e6e6e6"
           id="ellipse12152" />
        <path
           d="m 906.37333,733.04786 c -64.75515,-11.52541 -135.56743,-9.60949 -209.84681,0 33.85544,-28.5813 63.07462,-57.16255 29.21918,-85.74385 66.03927,13.624 75.28918,12.24508 148.75216,0 -17.0393,28.5813 14.83614,57.16255 31.87547,85.74385 z"
           transform="translate(-198.98652,-154.54184)"
           fill="#ffa200"
           id="path12154" />
        <path
           d="m 906.37333,733.04786 c -64.75515,-11.52541 -135.56743,-9.60949 -209.84681,0 33.85544,-28.5813 63.07462,-57.16255 29.21918,-85.74385 66.03927,13.624 75.28918,12.24508 148.75216,0 -17.0393,28.5813 14.83614,57.16255 31.87547,85.74385 z"
           transform="translate(-198.98652,-154.54184)"
           opacity="0.2"
           id="path12156" />
        <path
           d="m 890.57841,720.85416 c -55.00706,-9.19982 -115.15943,-7.6705 -178.257,0 28.75895,-22.81416 53.57959,-45.62832 24.82059,-68.4425 56.09788,10.875 63.95533,9.77428 126.35937,0 -14.47422,22.81418 12.60279,45.62834 27.07704,68.4425 z"
           transform="translate(-198.98652,-154.54184)"
           fill="#ffa200"
           id="path12158" />
        <circle
           cx="670.64038"
           cy="500.24411"
           r="29.30909"
           fill="#2f2e41"
           id="circle12160" />
        <polygon
           points="536.463,466.249 537.591,466.249 557.899,469.634 568.053,498.967 538.72,517.019 504.873,466.249 "
           fill="#a0616a"
           id="polygon12162" />
        <circle
           cx="595.13007"
           cy="463.99286"
           r="47.384762"
           fill="#a0616a"
           id="circle12164" />
        <path
           d="m 532.37217,445.91877 c 0,0 -115.07728,12.41029 -135.385,10.15388 -20.30772,-2.25641 -29.33342,-4.51284 -29.33342,-4.51284 0,0 -13.53851,18.05134 -6.76925,25.9488 a 48.82193,48.82193 0 0 0 13.5385,11.28209 c 0,0 12.41029,-3.38463 21.436,0 9.02571,3.38463 100.41057,18.05133 116.20549,4.51283 15.79492,-13.5385 20.30768,-47.38476 20.30768,-47.38476 z"
           transform="translate(-198.98652,-154.54184)"
           fill="#2f2e41"
           id="path12166" />
        <path
           d="m 540.26963,697.50929 c 0,0 -75.59,-21.436 -89.12848,-116.20549 v -9.02567 c 0,0 -14.95615,26.23828 -20.30776,31.58987 -6.20515,6.20514 -28.20522,62.05147 -27.077,67.69251 1.12822,5.64104 0,7.89746 0,7.89746 l -32.71805,-3.38462 v -10.1539 c 0,0 17.48724,-52.4617 18.61545,-64.872 1.12821,-12.4103 43.436,-98.71825 43.436,-98.71825 0,0 15.79492,-32.71805 42.87193,0 27.07701,32.71805 29.33342,55.28222 29.33342,55.28222 l 34.97447,67.69252 z"
           transform="translate(-198.98652,-154.54184)"
           fill="#2f2e41"
           id="path12168" />
        <path
           d="m 371.03833,448.17519 -36.10267,-12.4103 c 0,0 -33.84626,-24.82059 -25.9488,0 7.89746,24.82059 44.00013,78.9746 54.154,73.33356 10.15387,-5.64104 22.36551,-19.64318 19.64432,-21.66778 -2.72119,-2.0246 -20.77252,-16.69131 -11.74685,-39.25548 z"
           transform="translate(-198.98652,-154.54184)"
           fill="#2f2e41"
           id="path12170" />
        <path
           d="m 375.4022,659.25875 -29.14381,14.233 c 0,0 -35.24366,5.4221 -15.58854,15.58855 19.65512,10.16645 73.87615,21.01064 76.5872,11.522 2.71105,-9.48864 1.63541,-25.2364 -1.21558,-24.81793 -2.85099,0.41847 -22.50612,2.45174 -30.63927,-16.52562 z"
           transform="translate(-198.98652,-154.54184)"
           fill="#2f2e41"
           id="path12172" />
        <path
           d="m 525.60291,623.04752 c 0,0 -14.66671,63.17969 10.15388,76.71819 24.82059,13.5385 198.56472,15.79492 212.10321,-9.02571 13.53849,-24.82063 6.76926,-24.82059 6.76926,-24.82059 L 718.52658,625.3039 747.86,623.04752 c 0,0 0,-9.02567 -10.15387,-10.15387 -10.15387,-1.1282 -41.74372,-12.4103 -68.82073,-4.51284 -27.07701,7.89746 -42.87193,-15.79492 -42.87193,-15.79492 z"
           transform="translate(-198.98652,-154.54184)"
           fill="#575a89"
           id="path12174" />
        <polygon
           points="288.257,375.993 420.258,360.198 443.95,265.428 307.437,271.069 "
           fill="#3f3d56"
           id="polygon12176" />
        <polygon
           points="295.591,368.659 415.745,354.557 438.873,269.377 311.386,275.018 "
           fill="#ffffff"
           id="polygon12178" />
        <polygon
           points="326.616,473.019 292.77,377.121 288.257,375.993 286.001,380.505 322.104,480.916 325.499,479.618 "
           fill="#b3b3b3"
           id="polygon12180" />
        <polygon
           points="324.36,479.788 460.873,459.48 420.258,360.198 288.257,374.864 "
           fill="#d0cde1"
           id="polygon12182" />
        <polygon
           points="306.309,377.121 406.719,365.839 405.591,360.198 306.309,371.48 "
           fill="#3f3d56"
           id="polygon12184" />
        <polygon
           points="324.36,426.762 427.027,414.352 408.976,372.608 308.565,382.762 "
           fill="#3f3d56"
           id="polygon12186" />
        <path
           d="m 636.16736,599.35514 -3.38463,-9.02567 c 0,0 -25.94879,-45.12834 -39.4873,-36.10267 -13.53851,9.02567 28.20522,53.0258 28.20522,53.0258 h 13.5385 z"
           transform="translate(-198.98652,-154.54184)"
           fill="#a0616a"
           id="path12188" />
        <path
           d="m 550.4235,606.12439 -3.38462,-13.5385 c 0,0 -9.02567,-41.74372 6.76925,-39.4873 15.79492,2.25642 20.30776,41.74372 20.30776,41.74372 l -1.12821,9.02567 z"
           transform="translate(-198.98652,-154.54184)"
           fill="#a0616a"
           id="path12190" />
        <path
           d="m 577.50051,600.48335 c 0,0 -29.33342,-4.51283 -30.46163,2.25642 -1.12821,6.76925 -6.76925,108.308 21.436,111.69265 28.20525,3.38465 168.10309,18.05134 153.43638,-16.92313 -14.66671,-34.97447 -37.23089,-30.46163 -37.23089,-30.46163 l -95.89777,10.15388 z"
           transform="translate(-198.98652,-154.54184)"
           fill="#575a89"
           id="path12192" />
        <polygon
           points="437.181,438.044 417.437,453.275 442.258,480.352 467.078,458.916 "
           fill="#575a89"
           id="polygon12194" />
        <polygon
           points="391.488,522.096 469.335,517.583 401.642,516.455 386.976,479.224 "
           opacity="0.2"
           id="polygon12196" />
        <circle
           cx="618.52063"
           cy="472.60281"
           r="56.410431"
           fill="#2f2e41"
           id="circle12198" />
        <polygon
           points="398.258,305.301 405.027,279.531 332.822,281.71 328.309,307.736 "
           fill="#ffa200"
           id="polygon12200" />
        <polygon
           points="416.309,319.018 417.437,314.505 311.386,318.239 310.258,322.403 "
           fill="#e6e6e6"
           id="polygon12202" />
        <polygon
           points="414.053,330.3 415.181,325.787 309.129,329.521 308.001,333.685 "
           fill="#e6e6e6"
           id="polygon12204" />
        <polygon
           points="412.924,339.326 414.053,334.813 308.001,338.546 306.873,342.71 "
           fill="#e6e6e6"
           id="polygon12206" />
      </g>
      <g
         id="g25815"
         transform="matrix(0.84104528,0,0,0.84104528,72.406953,16.49919)">
        <polygon
           points="554.92,457.83 534.75,594.32 505.92,669.33 435.45,690.5 93.17,688.83 59.16,609.06 179.42,600.33 158.46,512.87 396.32,482.04 168.55,402.86 188.67,398.08 "
           fill="#ffa200"
           id="polygon12392"
           transform="matrix(0.26458333,0,0,0.26458333,255.23386,-103.48711)" />
        <path
           d="m 281.27415,69.926094 c 0,0 5.55625,-0.889 8.89,3.037417 0,0 -2.44475,1.926167 -7.70466,-0.740833 z"
           fill="#ffa200"
           id="path12394"
           style="stroke-width:0.264583" />
        <path
           d="m 280.69207,69.838782 c 0,0 -3.54542,4.362979 -1.79917,9.220729 0,0 2.88925,-1.156229 3.20411,-7.045854 z"
           fill="#ffa200"
           id="path12396"
           style="stroke-width:0.264583" />
        <path
           d="m 277.50649,62.665928 c 0,0 2.2225,-4.077229 11.1125,1.629833 0,0 -1.18534,2.741083 -5.11175,2.518833 -3.92642,-0.22225 -4.96359,-2.00025 -6.00075,-4.148666 z"
           fill="#ffa200"
           id="path12398"
           style="stroke-width:0.264583" />
        <path
           d="m 276.93234,62.37224 c 0,0 -4.61169,-0.529166 -5.05883,10.027708 0,0 2.92364,0.605896 5.00062,-2.733145 2.07698,-3.339042 1.22502,-5.212292 0.0582,-7.294563 z"
           fill="#ffa200"
           id="path12400"
           style="stroke-width:0.264583" />
        <path
           d="m 274.24682,53.950553 c 0,0 2.59292,-7.186083 12.0015,-2.074333 0,0 -2.14842,6.593416 -11.03842,4.519083 z"
           fill="#ffa200"
           id="path12402"
           style="stroke-width:0.264583" />
        <path
           d="m 271.35757,43.20847 c 0,0 4.8895,-7.260167 13.55725,-0.529167 0,0 -3.03742,6.815667 -12.81642,3.1115 z"
           fill="#ffa200"
           id="path12404"
           style="stroke-width:0.264583" />
        <path
           d="m 270.3204,32.98497 c 0,0 5.70442,-6.670146 14.2875,0 0,0 -5.40808,5.852583 -14.2875,1.703916 z"
           fill="#ffa200"
           id="path12406"
           style="stroke-width:0.264583" />
        <path
           d="m 269.4314,23.055157 c 0,0 5.7785,-6.963833 14.00175,-0.370416 0,0 -6.51933,6.148916 -14.00175,2.00025 z"
           fill="#ffa200"
           id="path12408"
           style="stroke-width:0.264583" />
        <path
           d="m 269.94999,14.239241 c 0,0 6.08541,-8.9640833 13.7795,-2.88925 0,0 -6.51934,7.704666 -13.7795,4.593167 z"
           fill="#ffa200"
           id="path12410"
           style="stroke-width:0.264583" />
        <path
           d="m 271.35757,3.9416577 c 0,0 6.44525,-8.8899999 13.92767,-2.0743333 0,0 -7.63059,7.7046665 -13.92767,3.7041666 z"
           fill="#ffa200"
           id="path12412"
           style="stroke-width:0.264583" />
        <path
           d="m 273.50599,-5.2631964 c 0,0 7.63058,-8.3555416 14.2875,-5.0270836 0,0 -7.95073,8.8741252 -14.62088,7.2442919 z"
           fill="#ffa200"
           id="path12414"
           style="stroke-width:0.264583" />
        <path
           d="m 276.17299,-13.989155 c 0,0 8.80533,-10.234083 13.92766,-6.815666 0,0 -6.48758,7.9375 -14.55208,8.73125 z"
           fill="#ffa200"
           id="path12416"
           style="stroke-width:0.264583" />
        <path
           d="m 280.02267,-24.109467 c 0,0 7.70732,-8.355542 13.33765,-6.281208 0,0 -6.59342,8.66775 -14.37217,8.89 z"
           fill="#ffa200"
           id="path12418"
           style="stroke-width:0.264583" />
        <path
           d="m 283.50724,-33.576259 c 0,0 8.51958,-8.000999 12.22375,-6.593416 0,0 -6.14892,8.89 -12.59417,8.371416 z"
           fill="#ffa200"
           id="path12420"
           style="stroke-width:0.264583" />
        <path
           d="m 286.91507,-42.318092 c 0,0 7.33425,-9.559395 11.33739,-8.818562 0,0 -4.44764,8.522229 -11.33739,9.789583 z"
           fill="#ffa200"
           id="path12422"
           style="stroke-width:0.264583" />
        <path
           d="m 290.61394,-54.105279 c 0,0 6.4823,-7.326313 9.98538,-7.310438 0,0 -5.11704,9.789584 -10.2526,9.699625 z"
           fill="#ffa200"
           id="path12424"
           style="stroke-width:0.264583" />
        <path
           d="m 292.80469,-61.952821 6.26269,-15.261166 c 0,0 0.31221,13.795375 -7.05908,18.092208 z"
           fill="#ffa200"
           id="path12426"
           style="stroke-width:0.264583" />
        <path
           d="m 295.34734,-78.782966 c 0,0 1.03717,-12.744979 0.37042,-13.782146 0,0 4.47675,10.596562 -0.41275,19.412479 z"
           fill="#ffa200"
           id="path12428"
           style="stroke-width:0.264583" />
        <path
           d="m 274.0034,53.78122 c 0,0 -6.49287,-4.024313 -10.6971,5.820833 0,0 5.7785,3.836458 11.46175,-3.309938 z"
           fill="#ffa200"
           id="path12430"
           style="stroke-width:0.264583" />
        <path
           d="m 271.14855,42.798366 c 0,0 -7.96396,-3.63273 -11.82688,6.646333 0,0 6.15157,4.233333 12.55184,-4.048125 z"
           fill="#ffa200"
           id="path12432"
           style="stroke-width:0.264583" />
        <path
           d="m 269.94999,33.596157 c 0,0 -5.70442,-6.670145 -14.2875,0 0,0 5.40808,5.852584 14.2875,1.703917 z"
           fill="#ffa200"
           id="path12434"
           style="stroke-width:0.264583" />
        <path
           d="m 269.23561,23.055157 c 0,0 -5.7785,-6.963833 -14.00175,-0.370416 0,0 6.51933,6.148916 14.00175,2.00025 z"
           fill="#ffa200"
           id="path12436"
           style="stroke-width:0.264583" />
        <path
           d="m 269.94999,14.493241 c 0,0 -4.05342,-10.0409375 -12.86405,-5.7229376 0,0 4.7625,8.9032286 12.50421,7.3898126 z"
           fill="#ffa200"
           id="path12438"
           style="stroke-width:0.264583" />
        <path
           d="m 271.86822,3.8913868 c 0,0 -4.02961,-10.2155623 -12.96459,-5.4795207 0,0 5.47159,9.363604 12.56771,7.0564374 z"
           fill="#ffa200"
           id="path12440"
           style="stroke-width:0.264583" />
        <path
           d="m 274.36588,-5.2129255 c 0,0 -1.5875,-11.1998125 -8.99583,-12.2025835 0,0 1.57162,11.8110001 7.99835,14.2213543 z"
           fill="#ffa200"
           id="path12442"
           style="stroke-width:0.264583" />
        <path
           d="m 276.36084,-13.967988 c 0,0 -0.61912,-13.49375 -6.74423,-13.964708 0,0 0.20638,10.242021 6.05367,15.875 z"
           fill="#ffa200"
           id="path12444"
           style="stroke-width:0.264583" />
        <path
           d="m 280.65767,-24.487821 c 0,0 -1.82562,-11.220979 -7.67291,-12.591521 0,0 0.72496,10.866438 7.09348,15.345833 z"
           fill="#ffa200"
           id="path12446"
           style="stroke-width:0.264583" />
        <path
           d="m 284.20044,-33.483654 c 0,0 -0.0609,-11.689292 -3.63272,-13.406438 0,0 -2.21457,10.583334 2.5982,14.898688 z"
           fill="#ffa200"
           id="path12448"
           style="stroke-width:0.264583" />
        <path
           d="m 287.18759,-42.450383 c 0,0 -0.50006,-12.035896 -4.19894,-13.731875 0,0 -1.26471,9.525 3.64596,14.520333 z"
           fill="#ffa200"
           id="path12450"
           style="stroke-width:0.264583" />
        <path
           d="m 291.12988,-53.144842 c 0,0 -0.0212,-9.789583 -2.66171,-12.086166 0,0 -2.62466,10.723562 1.28323,14.054666 z"
           fill="#ffa200"
           id="path12452"
           style="stroke-width:0.264583" />
        <path
           d="m 292.49513,-62.434362 -2.5691,-16.293042 c 0,0 -3.48986,13.350875 2.69081,19.235208 z"
           fill="#ffa200"
           id="path12454"
           style="stroke-width:0.264583" />
        <path
           d="m 292.99519,-78.629508 c 0,0 -6.59341,-10.95375 -6.45847,-12.170833 0,0 0.70114,11.480271 8.99583,17.197916 z"
           fill="#ffa200"
           id="path12456"
           style="stroke-width:0.264583" />
        <path
           d="m 293.76778,-81.865362 c 0,0 -6.223,-15.5575 -9.03817,-16.816917 0,0 8.89,4.519084 9.55675,16.372417 z"
           fill="#ffa200"
           id="path12458"
           style="stroke-width:0.264583" />
        <path
           d="m 290.31497,-51.623487 -0.42598,-0.129646 c 5.25198,-17.126479 6.56166,-28.045833 3.69093,-30.784271 l 0.30427,-0.322791 c 3.04536,2.88925 1.80975,13.689541 -3.56922,31.236708 z"
           fill="#444053"
           id="path12460"
           style="stroke-width:0.264583" />
        <path
           d="m 275.85284,-11.523238 -0.62971,-0.224896 c 0.55827,-1.568979 1.15888,-3.161771 1.78859,-4.73075 5.48216,-13.663083 10.14941,-26.373666 13.14185,-36.131499 l 0.54769,-0.264584 c -2.99773,9.776354 -7.58296,22.973771 -13.07042,36.655375 -0.62706,1.539875 -1.22502,3.124729 -1.778,4.696354 z"
           fill="#444053"
           id="path12462"
           style="stroke-width:0.264583" />
        <path
           d="m 289.10317,82.742511 c -0.0847,-0.0926 -8.59631,-9.678458 -14.53091,-26.042937 a 96.355957,96.355957 0 0 1 -5.73352,-29.839708 c -0.40746,-12.734396 2.26483,-26.95310411 6.84212,-39.870062 l 0.49742,0.582083 c -10.27642,28.990396 -6.1939,53.832124 -0.77788,68.791666 5.87111,16.216312 14.2875,25.696333 14.36952,25.791583 z"
           fill="#444053"
           id="path12464"
           style="stroke-width:0.264583" />
        <path
           d="m 422.11451,62.390761 c 0,0 -5.99811,7.321021 -1.23561,18.388542 l -47.88958,20.769787 -4.59581,0.96309 -2.11667,-9.260419 1.41552,-11.686646 v -6.387042 z"
           fill="#d5d6db"
           id="path12466"
           style="stroke-width:0.264583" />
        <polygon
           points="59.16,609.06 309.68,563.39 641.63,616.27 435.45,690.5 "
           fill="#ffa200"
           id="polygon12468"
           transform="matrix(0.26458333,0,0,0.26458333,255.23386,-103.48711)" />
        <polygon
           points="59.16,609.06 309.68,563.39 641.63,616.27 435.45,690.5 "
           fill="#ffa200"
           id="polygon12470"
           transform="matrix(0.26458333,0,0,0.26458333,255.23386,-103.48711)" />
        <path
           d="m 270.88661,57.657365 c 0,0 -6.19919,11.744854 0.94456,22.592771 l 98.29271,21.298954 c 0,0 -6.10129,-9.355663 0.31485,-22.341412 z"
           fill="#ffa200"
           id="path12472"
           style="stroke-width:0.264583" />
        <path
           d="m 270.88661,57.657365 c 0,0 -6.19919,11.744854 0.94456,22.592771 l 98.29271,21.298954 c 0,0 -6.10129,-9.355663 0.31485,-22.341412 z"
           opacity="0.1"
           id="path12474"
           style="stroke-width:0.264583" />
        <path
           d="m 273.81555,61.729303 c 0,0 -3.54277,8.593666 0,14.155208"
           opacity="0.1"
           id="path12476"
           style="stroke-width:0.264583" />
        <path
           d="m 370.12388,101.54909 54.87458,-23.415621 c 0,0 3.06917,0.661459 1.0848,2.910417 -1.98438,2.248958 -54.90105,22.754164 -54.90105,22.754164 L 271.83117,80.250136 Z"
           fill="#ffa200"
           id="path12478"
           style="stroke-width:0.264583" />
        <path
           d="m 370.12388,101.54909 54.87458,-23.415621 c 0,0 3.06917,0.661459 1.0848,2.910417 -1.98438,2.248958 -54.90105,22.754164 -54.90105,22.754164 L 271.83117,80.250136 Z"
           opacity="0.1"
           id="path12480"
           style="stroke-width:0.264583" />
        <path
           d="m 365.62596,81.573053 c 0,0 -5.29166,6.349999 0,15.874999"
           opacity="0.1"
           id="path12482"
           style="stroke-width:0.264583" />
        <rect
           x="320.33127"
           y="201.09833"
           width="25.021646"
           height="0.26458332"
           transform="rotate(-18.45)"
           opacity="0.1"
           id="rect12484"
           style="stroke-width:0.264583" />
        <rect
           x="310.97739"
           y="216.16075"
           width="30.487938"
           height="0.26458332"
           transform="rotate(-20.819999)"
           opacity="0.1"
           id="rect12486"
           style="stroke-width:0.264583" />
        <rect
           x="304.6427"
           y="226.29231"
           width="35.337749"
           height="0.26458332"
           transform="rotate(-22.26)"
           opacity="0.1"
           id="rect12488"
           style="stroke-width:0.264583" />
        <rect
           x="295.7897"
           y="239.21899"
           width="40.677044"
           height="0.26458332"
           transform="rotate(-24.309999)"
           opacity="0.1"
           id="rect12490"
           style="stroke-width:0.264583" />
        <rect
           x="298.52716"
           y="236.6931"
           width="44.489685"
           height="0.26458332"
           transform="rotate(-23.609999)"
           opacity="0.1"
           id="rect12492"
           style="stroke-width:0.264583" />
        <rect
           x="299.40393"
           y="237.2933"
           width="53.239456"
           height="0.26458332"
           transform="rotate(-23.36)"
           opacity="0.1"
           id="rect12494"
           style="stroke-width:0.264583" />
        <polygon
           points="152.23,613.94 328.23,576.94 435.45,597.44 291.23,643.94 "
           fill="#ffffff"
           opacity="0.3"
           id="polygon12496"
           transform="matrix(0.26458333,0,0,0.26458333,255.23386,-103.48711)" />
        <path
           d="m 424.99846,59.567657 c 0,0 2.40771,0.971021 0.99484,2.471208 -1.41288,1.500188 -55.55457,17.168813 -55.55457,17.168813 z"
           fill="#ffa200"
           id="path12498"
           style="stroke-width:0.264583" />
        <path
           d="m 448.38498,36.943136 c 0,0 -5.99545,7.318375 -1.23295,18.388542 l -47.88959,20.769791 -4.59581,0.968375 -2.11667,-9.260416 1.43669,-11.684 v -6.394979 z"
           fill="#d5d6db"
           id="path12500"
           style="stroke-width:0.264583" />
        <polygon
           points="158.46,512.87 408.97,467.21 740.93,520.09 534.75,594.32 "
           fill="#3a3768"
           id="polygon12502"
           transform="matrix(0.26458333,0,0,0.26458333,255.23386,-103.48711)" />
        <path
           d="m 297.14915,32.209741 c 0,0 -6.20183,11.744854 0.94192,22.59277 l 98.29271,21.298958 c 0,0 -6.09865,-9.363604 0.32543,-22.344062 z"
           fill="#3a3768"
           id="path12504"
           style="stroke-width:0.264583" />
        <path
           d="m 297.14915,32.209741 c 0,0 -6.20183,11.744854 0.94192,22.59277 l 98.29271,21.298958 c 0,0 -6.09865,-9.363604 0.32543,-22.344062 l -31.08325,-6.728354 z"
           opacity="0.1"
           id="path12506"
           style="stroke-width:0.264583" />
        <path
           d="m 300.08603,36.281678 c 0,0 -3.54013,8.591021 0,14.155208"
           opacity="0.1"
           id="path12508"
           style="stroke-width:0.264583" />
        <path
           d="m 396.39436,76.101469 54.87723,-23.415624 c 0,0 3.06652,0.661458 1.08214,2.910416 -1.98437,2.248958 -54.90104,22.754167 -54.90104,22.754167 L 298.10165,54.802511 Z"
           fill="#3a3768"
           id="path12510"
           style="stroke-width:0.264583" />
        <path
           d="m 396.39436,76.101469 54.87723,-23.415624 c 0,0 3.06652,0.661458 1.08214,2.910416 -1.98437,2.248958 -54.90104,22.754167 -54.90104,22.754167 L 298.10165,54.802511 Z"
           opacity="0.1"
           id="path12512"
           style="stroke-width:0.264583" />
        <path
           d="m 391.89644,56.125428 c 0,0 -5.29166,6.35 0,15.875"
           opacity="0.1"
           id="path12514"
           style="stroke-width:0.264583" />
        <rect
           x="353.30609"
           y="185.27603"
           width="25.021646"
           height="0.26458332"
           transform="rotate(-18.45)"
           opacity="0.1"
           id="rect12516"
           style="stroke-width:0.264583" />
        <rect
           x="344.58188"
           y="201.71558"
           width="30.487938"
           height="0.26458332"
           transform="rotate(-20.819999)"
           opacity="0.1"
           id="rect12518"
           style="stroke-width:0.264583" />
        <rect
           x="338.59735"
           y="212.69131"
           width="35.337749"
           height="0.26458332"
           transform="rotate(-22.26)"
           opacity="0.1"
           id="rect12520"
           style="stroke-width:0.264583" />
        <rect
           x="330.21173"
           y="226.84306"
           width="40.677044"
           height="0.26458332"
           transform="rotate(-24.309999)"
           opacity="0.1"
           id="rect12522"
           style="stroke-width:0.264583" />
        <rect
           x="332.7933"
           y="223.89294"
           width="44.489685"
           height="0.26458332"
           transform="rotate(-23.609999)"
           opacity="0.1"
           id="rect12524"
           style="stroke-width:0.264583" />
        <rect
           x="333.61572"
           y="224.34459"
           width="53.239456"
           height="0.26458332"
           transform="rotate(-23.36)"
           opacity="0.1"
           id="rect12526"
           style="stroke-width:0.264583" />
        <polygon
           points="251.53,517.76 427.53,480.76 534.75,501.26 390.53,547.76 "
           fill="#ffffff"
           opacity="0.45"
           id="polygon12528"
           transform="matrix(0.26458333,0,0,0.26458333,255.23386,-103.48711)" />
        <path
           d="m 451.27159,34.120032 c 0,0 2.40506,0.971021 0.99483,2.468563 -1.41023,1.497541 -55.54662,17.168812 -55.54662,17.168812 z"
           fill="#3a3768"
           id="path12530"
           style="stroke-width:0.264583" />
        <path
           d="m 450.87207,7.8310326 c 0,0 -5.99811,13.1418544 -1.23561,24.2093744 l -47.88958,14.948958 -4.58523,0.971021 -2.11667,-9.260416 1.41553,-11.686646 v -6.394979 z"
           fill="#d5d6db"
           id="path12532"
           style="stroke-width:0.264583" />
        <polygon
           points="167.89,402.85 418.41,357.18 750.37,410.06 544.18,484.29 "
           fill="#ffa200"
           id="polygon12534"
           transform="matrix(0.26458333,0,0,0.26458333,255.23386,-103.48711)" />
        <path
           d="m 299.65476,3.0976368 c 0,0 -6.20977,11.7448542 0.93398,22.5927702 l 98.2927,21.298958 c 0,0 -6.10129,-9.363604 0.32279,-22.341416 z"
           fill="#ffa200"
           id="path12536"
           style="stroke-width:0.264583" />
        <path
           d="m 299.65476,3.0976368 c 0,0 -6.20977,11.7448542 0.93398,22.5927702 l 98.2927,21.298958 c 0,0 -6.10129,-9.363604 0.32279,-22.341416 z"
           opacity="0.1"
           id="path12538"
           style="stroke-width:0.264583" />
        <path
           d="m 302.58369,7.1695743 c 0,0 -3.54277,8.5936667 0,14.1552077"
           opacity="0.1"
           id="path12540"
           style="stroke-width:0.264583" />
        <path
           d="m 398.89203,46.989365 54.87458,-17.594791 c 0,0 3.06917,0.661458 1.08479,2.910417 -1.98437,2.248958 -54.90104,16.933333 -54.90104,16.933333 L 300.59932,25.690407 Z"
           fill="#ffa200"
           id="path12542"
           style="stroke-width:0.264583" />
        <path
           d="m 398.89203,46.989365 54.87458,-17.594791 c 0,0 3.06917,0.661458 1.08479,2.910417 -1.98437,2.248958 -54.90104,16.933333 -54.90104,16.933333 L 300.59932,25.690407 Z"
           opacity="0.1"
           id="path12544"
           style="stroke-width:0.264583" />
        <path
           d="m 394.39411,27.013324 c 0,0 -5.29167,6.35 0,15.875"
           opacity="0.1"
           id="path12546"
           style="stroke-width:0.264583" />
        <rect
           x="364.88959"
           y="158.45049"
           width="25.021646"
           height="0.26458332"
           transform="rotate(-18.45)"
           opacity="0.1"
           id="rect12548"
           style="stroke-width:0.264583" />
        <rect
           x="357.26254"
           y="175.39256"
           width="30.487938"
           height="0.26458332"
           transform="rotate(-20.819999)"
           opacity="0.1"
           id="rect12550"
           style="stroke-width:0.264583" />
        <rect
           x="351.9328"
           y="186.69557"
           width="35.337749"
           height="0.26458332"
           transform="rotate(-22.26)"
           opacity="0.1"
           id="rect12552"
           style="stroke-width:0.264583" />
        <rect
           x="344.47287"
           y="201.34036"
           width="40.677044"
           height="0.26458332"
           transform="rotate(-24.309999)"
           opacity="0.1"
           id="rect12554"
           style="stroke-width:0.264583" />
        <rect
           x="346.74203"
           y="198.22078"
           width="44.489685"
           height="0.26458332"
           transform="rotate(-23.609999)"
           opacity="0.1"
           id="rect12556"
           style="stroke-width:0.264583" />
        <rect
           x="347.45084"
           y="198.61302"
           width="53.239456"
           height="0.26458332"
           transform="rotate(-23.36)"
           opacity="0.1"
           id="rect12558"
           style="stroke-width:0.264583" />
        <polygon
           points="260.96,407.73 436.96,370.73 544.18,391.23 399.96,437.73 "
           fill="#ffffff"
           opacity="0.3"
           id="polygon12560"
           transform="matrix(0.26458333,0,0,0.26458333,255.23386,-103.48711)" />
        <path
           d="m 453.76661,5.0079285 c 0,0 2.40771,0.9710208 0.99483,2.4712083 -1.41287,1.5001875 -55.54662,17.1688122 -55.54662,17.1688122 z"
           fill="#ffa200"
           id="path12562"
           style="stroke-width:0.264583" />
      </g>
      <g
         id="g25635"
         transform="matrix(0.91747019,0,0,0.91747019,21.916068,13.964642)">
        <circle
           cx="426.1857"
           cy="-12.358881"
           r="11.394897"
           fill="#2f2e41"
           id="circle11892-0"
           style="stroke-width:0.264583" />
        <rect
           x="420.9931"
           y="-3.4160714"
           width="3.4617395"
           height="6.2022858"
           fill="#2f2e41"
           id="rect11894-6"
           style="stroke-width:0.264583" />
        <rect
           x="427.91656"
           y="-3.4160714"
           width="3.4617367"
           height="6.2022858"
           fill="#2f2e41"
           id="rect11896-7"
           style="stroke-width:0.264583" />
        <ellipse
           cx="423.87787"
           cy="2.8583274"
           rx="2.884789"
           ry="1.0817965"
           fill="#2f2e41"
           id="ellipse11898-0"
           style="stroke-width:0.264583" />
        <ellipse
           cx="430.80136"
           cy="2.7141013"
           rx="2.884789"
           ry="1.0817965"
           fill="#2f2e41"
           id="ellipse11900-7"
           style="stroke-width:0.264583" />
        <ellipse
           cx="321.81195"
           cy="297.04361"
           rx="6.3215418"
           ry="1.9845204"
           transform="rotate(-45.0221)"
           fill="#2f2e41"
           id="ellipse11902-3"
           style="stroke-width:0.264583" />
        <ellipse
           cx="305.25125"
           cy="278.89639"
           rx="1.9845204"
           ry="6.3215418"
           transform="rotate(-44.9779)"
           fill="#2f2e41"
           id="ellipse11904-3"
           style="stroke-width:0.264583" />
        <circle
           cx="425.70627"
           cy="-13.973688"
           r="3.8944576"
           fill="#ffffff"
           id="circle11906-2"
           style="stroke-width:0.264583" />
        <circle
           cx="425.70627"
           cy="-13.973688"
           r="1.2981595"
           fill="#3f3d56"
           id="circle11908-1"
           style="stroke-width:0.264583" />
        <path
           d="m 428.79781,-6.77108 a 2.5327111,2.5327111 0 0 1 -4.98352,0.90721 v 0 l -7.9e-4,-0.005 c -0.24918,-1.3764 0.81502,-1.86346 2.19142,-2.11263 1.3764,-0.24917 2.54382,-0.16607 2.79298,1.21031 z"
           fill="#ffffff"
           id="path11910-4"
           style="stroke-width:0.264583" />
        <path
           d="m 425.89227,-19.83297 a 20.130891,20.130891 0 0 1 -5.97031,-0.91208 0.6690598,0.6690598 0 0 1 -0.4636,-0.63433 v -4.63821 a 0.6622362,0.6622362 0 0 1 0.66146,-0.66146 h 11.64167 a 0.6622362,0.6622362 0 0 1 0.66145,0.66146 v 4.63549 a 0.6630617,0.6630617 0 0 1 -0.47064,0.63484 20.950983,20.950983 0 0 1 -6.06003,0.91429 z"
           fill="#ffa200"
           id="path11916-0"
           style="fill:#d5d6db;fill-opacity:1;stroke-width:0.264583" />
        <path
           d="m 432.29065,-26.01759 v 0.77522 l -6.29974,2.20927 a 0.53328358,0.53328358 0 0 1 -0.36251,-0.005 l -6.03775,-2.26747 v -0.71173 a 0.53070918,0.53070918 0 0 1 0.52917,-0.52947 h 11.64167 a 0.53070918,0.53070918 0 0 1 0.52916,0.52918 z"
           opacity="0.2"
           id="path11918-0"
           style="stroke-width:0.264583" />
        <path
           d="m 425.81462,-23.92962 a 0.66211449,0.66211449 0 0 1 -0.23247,-0.042 l -9.02258,-3.3879 a 0.6615033,0.6615033 0 0 1 0.0184,-1.24515 l 8.48928,-2.9042 a 0.66812318,0.66812318 0 0 1 0.42323,-0.002 l 9.47475,3.15833 a 0.66145832,0.66145832 0 0 1 0.01,1.25174 l -8.9415,3.13392 a 0.66069633,0.66069633 0 0 1 -0.21872,0.0371 z"
           fill="#ffa200"
           id="path11920-8"
           style="fill:#d5d6db;fill-opacity:1;stroke-width:0.264583" />
        <polygon
           points="124.154,197 124.154,182.5 154.654,182.5 154.654,183.5 125.154,183.5 125.154,197 "
           fill="#3f3d56"
           id="polygon11922-7"
           transform="matrix(0.26458333,0,0,0.26458333,384.49268,-76.28844)" />
        <circle
           cx="417.474"
           cy="-23.900934"
           r="0.52916664"
           fill="#3f3d56"
           id="circle11924-3"
           style="stroke-width:0.264583" />
        <circle
           cx="423.06842"
           cy="-69.78083"
           r="11.394897"
           fill="#2f2e41"
           id="circle11892-0-0"
           style="stroke-width:0.264583" />
        <rect
           x="417.87585"
           y="-60.838009"
           width="3.4617395"
           height="6.2022858"
           fill="#2f2e41"
           id="rect11894-6-7"
           style="stroke-width:0.264583" />
        <rect
           x="424.79932"
           y="-60.838009"
           width="3.4617367"
           height="6.2022858"
           fill="#2f2e41"
           id="rect11896-7-6"
           style="stroke-width:0.264583" />
        <ellipse
           cx="420.76062"
           cy="-54.56361"
           rx="2.884789"
           ry="1.0817965"
           fill="#2f2e41"
           id="ellipse11898-0-8"
           style="stroke-width:0.264583" />
        <ellipse
           cx="427.68408"
           cy="-54.707836"
           rx="2.884789"
           ry="1.0817965"
           fill="#2f2e41"
           id="ellipse11900-7-2"
           style="stroke-width:0.264583" />
        <ellipse
           cx="356.97498"
           cy="-260.69012"
           rx="6.3215418"
           ry="1.9845204"
           transform="rotate(27.319904)"
           fill="#2f2e41"
           id="ellipse11902-3-3"
           style="stroke-width:0.264583" />
        <ellipse
           cx="-159.76814"
           cy="381.76065"
           rx="1.9845204"
           ry="6.3215418"
           transform="rotate(-122.01337)"
           fill="#2f2e41"
           id="ellipse11904-3-9"
           style="stroke-width:0.264583" />
        <circle
           cx="422.58899"
           cy="-71.395638"
           r="3.8944576"
           fill="#ffffff"
           id="circle11906-2-0"
           style="stroke-width:0.264583" />
        <circle
           cx="422.58899"
           cy="-71.395638"
           r="1.2981595"
           fill="#3f3d56"
           id="circle11908-1-3"
           style="stroke-width:0.264583" />
        <path
           d="m 428.43159,-64.103617 a 5.082122,2.4568867 0 0 1 -9.9999,0.880049 v 0 l -10e-4,-0.0049 c -0.5,-1.335192 1.63541,-1.80767 4.39728,-2.04938 2.76188,-0.241711 5.10441,-0.161098 5.60438,1.174074 z"
           fill="#ffffff"
           id="path11910-4-8"
           style="stroke-width:0.36914" />
        <path
           d="m 422.77501,-77.254914 a 20.130891,20.130891 0 0 1 -5.97031,-0.91208 0.6690598,0.6690598 0 0 1 -0.4636,-0.63433 v -4.63821 a 0.6622362,0.6622362 0 0 1 0.66146,-0.66146 h 11.64167 a 0.6622362,0.6622362 0 0 1 0.66145,0.66146 v 4.63549 a 0.6630617,0.6630617 0 0 1 -0.47064,0.63484 20.950983,20.950983 0 0 1 -6.06003,0.91429 z"
           fill="#ffa200"
           id="path11916-0-3"
           style="fill:#ffbe4c;fill-opacity:1;stroke-width:0.264583" />
        <path
           d="m 429.17339,-83.439534 v 0.77522 l -6.29974,2.20927 a 0.53328358,0.53328358 0 0 1 -0.36251,-0.005 l -6.03775,-2.26747 v -0.71173 a 0.53070918,0.53070918 0 0 1 0.52917,-0.52947 h 11.64167 a 0.53070918,0.53070918 0 0 1 0.52916,0.52918 z"
           opacity="0.2"
           id="path11918-0-1"
           style="stroke-width:0.264583" />
        <path
           d="m 422.69736,-81.351564 a 0.66211449,0.66211449 0 0 1 -0.23247,-0.042 l -9.02258,-3.3879 a 0.6615033,0.6615033 0 0 1 0.0184,-1.24515 l 8.48928,-2.9042 a 0.66812318,0.66812318 0 0 1 0.42323,-0.002 l 9.47475,3.15833 a 0.66145832,0.66145832 0 0 1 0.01,1.25174 l -8.9415,3.13392 a 0.66069633,0.66069633 0 0 1 -0.21872,0.0371 z"
           fill="#ffa200"
           id="path11920-8-0"
           style="fill:#ffbe4c;fill-opacity:1;stroke-width:0.264583" />
        <polygon
           points="124.154,182.5 154.654,182.5 154.654,183.5 125.154,183.5 125.154,197 124.154,197 "
           fill="#3f3d56"
           id="polygon11922-7-0"
           transform="matrix(0.26458333,0,0,0.26458333,381.37542,-133.71038)" />
        <circle
           cx="414.35672"
           cy="-81.322884"
           r="0.52916664"
           fill="#3f3d56"
           id="circle11924-3-8"
           style="stroke-width:0.264583" />
        <g
           id="g16731"
           transform="matrix(1.4029261,0,0,1.4029261,-181.87607,39.284068)">
          <path
             d="m 404.7868,-70.075665 4.68312,-4.233334 c 0,0 18.15835,-1.190625 18.90977,4.982105 0,0 6.43731,-7.318375 19.97604,-5.688542 l 5.72823,4.561417 -15.83266,6.947958 -15.38553,5.336646 -11.3321,-5.072063 z"
             opacity="0.1"
             id="path12678-9"
             style="stroke-width:0.264583" />
          <path
             d="m 404.7868,-69.811082 4.68312,-4.233333 c 0,0 18.15835,-1.190625 18.90977,4.982104 0,0 6.43731,-7.318375 19.97604,-5.688542 l 5.72823,4.561417 -15.83266,6.947958 -15.38553,5.336646 -11.3321,-5.072063 z"
             fill="#d5d6db"
             id="path12680-3"
             style="stroke-width:0.264583" />
          <polygon
             points="437.38,204.83 445.21,298.5 528.21,302.67 524.61,209.4 524.54,207.83 "
             opacity="0.1"
             id="polygon12682-9"
             transform="matrix(0.26458333,0,0,0.26458333,286.99165,-123.47652)" />
          <polygon
             points="437.38,202.83 445.21,296.5 528.21,300.67 524.61,207.4 524.54,205.83 "
             fill="#ffa200"
             id="polygon12684-1"
             transform="matrix(0.26458333,0,0,0.26458333,286.99165,-123.47652)" />
          <polygon
             points="635.33,202.83 549.71,215.67 549.71,309.76 633.38,297.67 "
             opacity="0.1"
             id="polygon12686-0"
             transform="matrix(0.26458333,0,0,0.26458333,286.99165,-123.47652)" />
          <polygon
             points="635.33,200.83 549.71,213.67 549.71,307.76 633.38,295.67 "
             fill="#ffa200"
             id="polygon12688-4"
             transform="matrix(0.26458333,0,0,0.26458333,286.99165,-123.47652)" />
          <polygon
             points="615.14,223.79 568.89,228.93 569.9,244.69 615.11,239.75 "
             fill="#ffffff"
             opacity="0.3"
             id="polygon12690-9"
             transform="matrix(0.26458333,0,0,0.26458333,286.99165,-123.47652)" />
          <path
             d="m 432.43575,-66.416478 a 7.6199999,7.6199999 0 0 1 -6.64368,-1.656292 l 0.95514,24.675042 c 0,0 2.24896,2.434166 5.68854,1.878541 z"
             opacity="0.1"
             id="path12694-0"
             style="stroke-width:0.264583" />
          <path
             d="m 432.43575,-66.945645 a 7.6199999,7.6199999 0 0 1 -6.64368,-1.656291 l 0.95514,24.675041 c 0,0 2.24896,2.434167 5.68854,1.878542 z"
             fill="#ffa200"
             id="path12696-0"
             style="stroke-width:0.264583" />
          <path
             d="m 432.43575,-66.945645 a 7.6199999,7.6199999 0 0 1 -6.64368,-1.656291 l 0.95514,24.675041 c 0,0 2.24896,2.434167 5.68854,1.878542 z"
             opacity="0.1"
             id="path12698-0"
             style="stroke-width:0.264583" />
          <path
             d="m 432.96492,-69.726415 c 0,0 9.21544,-2.817813 11.61785,-2.420938"
             opacity="0.1"
             id="path12700-3"
             style="stroke-width:0.264583" />
          <path
             d="m 422.65675,-70.956728 c 0,0 -8.93233,-2.116666 -10.42458,-1.516062"
             opacity="0.1"
             id="path12702-2"
             style="stroke-width:0.264583" />
          <path
             d="m 438.77517,-69.374519 c 0,0 6.16215,-2.259542 8.38994,-1.185334"
             opacity="0.1"
             id="path12704-8"
             style="stroke-width:0.264583" />
        </g>
      </g>
    </g>
  </g>
</svg>
